<?xml version="1.0" standalone="no"?>
<!DOCTYPE svg PUBLIC "-//W3C//DTD SVG 20010904//EN"
 "http://www.w3.org/TR/2001/REC-SVG-20010904/DTD/svg10.dtd">
<svg version="1.0" xmlns="http://www.w3.org/2000/svg"
 width="31.000000pt" height="30.000000pt" viewBox="0 0 31.000000 30.000000"
 preserveAspectRatio="xMidYMid meet">

<g transform="translate(0.000000,30.000000) scale(0.100000,-0.100000)"
fill="#000000" stroke="none">
<path d="M85 281 c-53 -32 -68 -58 -73 -119 -3 -47 0 -63 20 -92 61 -90 185
-91 245 -1 29 44 31 113 3 159 -41 67 -132 92 -195 53z m143 -18 c111 -70 59
-243 -73 -243 -124 0 -180 149 -87 233 41 38 110 42 160 10z"/>
<path d="M164 259 c-3 -5 1 -9 9 -9 8 0 26 -10 41 -21 15 -12 30 -18 34 -14 8
7 -35 42 -60 49 -10 2 -21 0 -24 -5z"/>
<path d="M110 150 c0 -50 4 -70 13 -69 21 1 102 55 105 70 2 13 -85 69 -108
69 -6 0 -10 -30 -10 -70z m64 29 c20 -12 36 -24 36 -28 0 -7 -72 -51 -84 -51
-3 0 -6 23 -6 50 0 28 4 50 9 50 6 0 26 -9 45 -21z"/>
</g>
</svg>
